<svg width="860" height="260" viewBox="0 0 860 260" fill="none" xmlns="http://www.w3.org/2000/svg">
  <rect width="860" height="260" rx="18" fill="#111111"/>
  <text x="40" y="36" font-family="Courier New, Courier, monospace" font-size="16" fill="#cfcfcf">AST for: x &gt; 0 ? x : -x</text>

  <circle cx="430" cy="80" r="22" fill="#1c1c1c" stroke="#dcdcdc" stroke-width="2"/>
  <text x="430" y="86" text-anchor="middle" font-family="Courier New, Courier, monospace" font-size="14" fill="#f0f0f0">?:</text>

  <circle cx="260" cy="150" r="22" fill="#1c1c1c" stroke="#dcdcdc" stroke-width="2"/>
  <text x="260" y="156" text-anchor="middle" font-family="Courier New, Courier, monospace" font-size="14" fill="#f0f0f0">&gt;</text>

  <circle cx="430" cy="150" r="22" fill="#1c1c1c" stroke="#dcdcdc" stroke-width="2"/>
  <text x="430" y="156" text-anchor="middle" font-family="Courier New, Courier, monospace" font-size="14" fill="#f0f0f0">x</text>

  <circle cx="600" cy="150" r="22" fill="#1c1c1c" stroke="#dcdcdc" stroke-width="2"/>
  <text x="600" y="156" text-anchor="middle" font-family="Courier New, Courier, monospace" font-size="14" fill="#f0f0f0">neg</text>

  <circle cx="200" cy="220" r="20" fill="#1c1c1c" stroke="#dcdcdc" stroke-width="2"/>
  <text x="200" y="226" text-anchor="middle" font-family="Courier New, Courier, monospace" font-size="12" fill="#f0f0f0">x</text>

  <circle cx="320" cy="220" r="20" fill="#1c1c1c" stroke="#dcdcdc" stroke-width="2"/>
  <text x="320" y="226" text-anchor="middle" font-family="Courier New, Courier, monospace" font-size="12" fill="#f0f0f0">0</text>

  <circle cx="600" cy="220" r="20" fill="#1c1c1c" stroke="#dcdcdc" stroke-width="2"/>
  <text x="600" y="226" text-anchor="middle" font-family="Courier New, Courier, monospace" font-size="12" fill="#f0f0f0">x</text>

  <path d="M430 102 L260 128" stroke="#b5b5b5" stroke-width="2"/>
  <path d="M430 102 L430 128" stroke="#b5b5b5" stroke-width="2"/>
  <path d="M430 102 L600 128" stroke="#b5b5b5" stroke-width="2"/>
  <path d="M260 172 L200 200" stroke="#b5b5b5" stroke-width="2"/>
  <path d="M260 172 L320 200" stroke="#b5b5b5" stroke-width="2"/>
  <path d="M600 172 L600 200" stroke="#b5b5b5" stroke-width="2"/>
</svg>
